<svg width="120" height="120" viewBox="0 0 220 220" fill="none" xmlns="http://www.w3.org/2000/svg">
<circle cx="110" cy="110" r="110" fill="current"/>
<path fill-rule="evenodd" clip-rule="evenodd" d="M40 124C49.8557 152.48 77.6157 173 110.321 173C143.026 173 170.786 152.48 180.642 124H40Z" fill="#FFF8F0"/>
<path d="M40 124V117C37.7358 117 35.6115 118.095 34.2981 119.939C32.9847 121.784 32.6444 124.149 33.3849 126.289L40 124ZM180.642 124L187.257 126.289C187.997 124.149 187.657 121.784 186.344 119.939C185.03 118.095 182.906 117 180.642 117V124ZM110.321 166C80.5739 166 55.4868 147.347 46.6151 121.711L33.3849 126.289C44.2246 157.613 74.6574 180 110.321 180V166ZM174.027 121.711C165.155 147.347 140.068 166 110.321 166V180C145.984 180 176.417 157.613 187.257 126.289L174.027 121.711ZM180.642 117H40V131H180.642V117Z" fill="black"/>
<path d="M40 79.1473C47 69.9807 65.7 57.1473 84.5 79.1473" stroke="black" stroke-width="14" stroke-linecap="round"/>
<path d="M136 79.1473C143 69.9807 161.7 57.1473 180.5 79.1473" stroke="black" stroke-width="14" stroke-linecap="round"/>
</svg>
