<svg width="680" height="20" viewBox="0 0 680 20" fill="none" xmlns="http://www.w3.org/2000/svg">
<path d="M0 10C0 4.47715 4.47715 0 10 0H670C675.523 0 680 4.47715 680 10V10C680 15.5228 675.523 20 670 20H10C4.47716 20 0 15.5228 0 10V10Z" fill="#C4C4C4"/>
<ellipse id='0' cx="10" cy="10" rx="10" ry="10" transform="matrix(-4.37114e-08 1 1 4.37114e-08 40 0)" fill="current"/>
<ellipse id='1' cx="10" cy="10" rx="10" ry="10" transform="matrix(-4.37114e-08 1 1 4.37114e-08 93 0)" fill="current"/>
<ellipse id='2' cx="10" cy="10" rx="10" ry="10" transform="matrix(-4.37114e-08 1 1 4.37114e-08 146 0)" fill="current"/>
<ellipse id='3' cx="10" cy="10" rx="10" ry="10" transform="matrix(-4.37114e-08 1 1 4.37114e-08 199 0)" fill="current"/>
<ellipse id='4' cx="10" cy="10" rx="10" ry="10" transform="matrix(-4.37114e-08 1 1 4.37114e-08 252 0)" fill="current"/>
<ellipse id='5' cx="10" cy="10" rx="10" ry="10" transform="matrix(-4.37114e-08 1 1 4.37114e-08 305 0)" fill="current"/>
<ellipse id='6' cx="10" cy="10" rx="10" ry="10" transform="matrix(-4.37114e-08 1 1 4.37114e-08 358 0)" fill="#ECECEC"/>
<ellipse id='7' cx="10" cy="10" rx="10" ry="10" transform="matrix(-4.37114e-08 1 1 4.37114e-08 411 0)" fill="#ECECEC"/>
<ellipse id='8' cx="10" cy="10" rx="10" ry="10" transform="matrix(-4.37114e-08 1 1 4.37114e-08 464 0)" fill="#ECECEC"/>
<ellipse id='9' cx="10" cy="10" rx="10" ry="10" transform="matrix(-4.37114e-08 1 1 4.37114e-08 517 0)" fill="#ECECEC"/>
<ellipse id='10' cx="10" cy="10" rx="10" ry="10" transform="matrix(-4.37114e-08 1 1 4.37114e-08 570 0)" fill="#ECECEC"/>
<ellipse id='11' cx="10" cy="10" rx="10" ry="10" transform="matrix(-4.37114e-08 1 1 4.37114e-08 623 0)" fill="#ECECEC"/>
</svg>
